<svg xmlns="http://www.w3.org/2000/svg" xmlns:xlink="http://www.w3.org/1999/xlink" width="1440" height="669" viewBox="0 0 1440 669">
    <defs>
        <path id="a" d="M0 0h1515v560H0z"/>
    </defs>
    <g fill="none" fill-rule="evenodd">
        <use fill="#203467" transform="translate(-21 -51)" xlink:href="#a"/>
        <path fill="#203467" d="M-41 659c109.333-84.333 197.167-126.5 263.5-126.5 99.5 0 191.5 74.5 303 74.5s153-74.5 292-74.5 205 89.5 358.5 83.5 198.64-70 298-70c66.24 0 117.418 20.337 153.534 61.012V486H-41v173z"/>
        <path fill="#FFF" d="M1720.851 434.629c-100.334 65.487-185.63 96.39-255.886 92.708-105.384-5.523-116.038-33.148-234.132-39.337-118.094-6.189-159.188 57.059-306.408 49.344-147.22-7.716-190.463-89.51-366.092-91.844-175.628-2.335-191.618 52.131-370.5 62.5-119.254 6.912-206.82 36.25-262.7 88.015-18.631 25.118-26.965 37.686-25 37.704 1.965.018 594.967-7.068 1779.006-21.26l41.712-177.83z" opacity=".43"/>
        <path fill="#FFF" d="M-121.49 447.113c28.2 35.323 76.64 51.785 145.323 49.387 103.024-3.598 158.487-60.553 277-72.5 118.514-11.947 207.818 134.796 351.74 129.77 143.924-5.025 158.75-112.328 352.26-106.657 193.51 5.671 253.018 90.198 367.068 105.487 76.034 10.193 156.048 10.694 240.044 1.501l-.119 69.596-1733.698 47.799.383-224.383z" opacity=".275"/>
    </g>
</svg>
